<svg width="32" height="32" viewBox="0 0 32 32" fill="none" xmlns="http://www.w3.org/2000/svg">
<g id="icn telegram 1">
<path id="&#208;&#154;&#208;&#190;&#208;&#189;&#209;&#130;&#209;&#131;&#209;&#128; 842 1" d="M16 0C7.14667 0 0 7.14667 0 16C0 24.8533 7.14667 32 16 32C24.8533 32 32 24.8533 32 16C32 7.14667 24.8533 0 16 0ZM25.1733 10.6667C25.1733 10.6667 21.7599 21.0133 21.0133 23.68C20.9066 24.1067 20.5867 25.0667 20.16 25.0667H20.0534C19.3067 24.96 12.9066 18.56 12.9066 18.56L11.2 23.4667C11.0933 23.36 10.4533 17.6 10.3466 16.8533C9.59995 16.4267 5.86669 14.9333 5.76003 14.9333C5.44003 14.8267 5.12005 14.6133 5.12005 14.5066C5.12005 14.08 6.08005 13.9734 6.72005 13.76C7.46672 13.5467 24.3201 8.95999 24.8534 8.85332H24.96C25.0667 8.85332 25.2801 8.96003 25.3867 8.96003C25.6001 9.28003 25.3866 10.0267 25.1733 10.6667Z" fill="#8D93A1"/>
<path id="&#208;&#154;&#208;&#190;&#208;&#189;&#209;&#130;&#209;&#131;&#209;&#128; 843 1" d="M12.8 18.5601L15.4667 21.2267C14.8267 21.5467 14.1867 21.8667 13.5466 22.2934C12.8 22.7201 11.9467 23.1467 11.0934 23.5733C10.9867 23.5733 12.8 18.5601 12.8 18.5601Z" fill="#E6E6E6"/>
<path id="&#208;&#154;&#208;&#190;&#208;&#189;&#209;&#130;&#209;&#131;&#209;&#128; 844 1" d="M10.3467 16.8533C10.4533 17.5999 11.0934 23.36 11.2001 23.4666L12.8001 18.4533L21.9734 11.2L10.3467 16.8533Z" fill="#E6E6E6"/>
</g>
</svg>
