<svg width="32" height="32" viewBox="0 0 32 32" fill="none" xmlns="http://www.w3.org/2000/svg">
<g id="32x32 / Vkontakte">
<circle id="Ellipse 401" cx="16" cy="16" r="16" fill="#8D93A1"/>
<g id="vk" clip-path="url(#clip0_103_6646)">
<path id="Vector" d="M21.9363 16.7708C21.6453 16.4033 21.7285 16.2398 21.9363 15.9113C21.94 15.9075 24.3422 12.588 24.5897 11.4623L24.5912 11.4615C24.7143 11.0513 24.5913 10.7498 23.9965 10.7498H22.0285C21.5275 10.7498 21.2965 11.0085 21.1727 11.298C21.1727 11.298 20.1707 13.6965 18.7533 15.2513C18.2957 15.7005 18.0843 15.8445 17.8345 15.8445C17.7115 15.8445 17.5203 15.7005 17.5203 15.2903V11.4615C17.5203 10.9695 17.38 10.7498 16.9653 10.7498H13.8708C13.5565 10.7498 13.3698 10.9793 13.3698 11.193C13.3698 11.6595 14.0785 11.7668 14.152 13.0793V15.927C14.152 16.551 14.0388 16.6658 13.7875 16.6658C13.1185 16.6658 11.4948 14.2575 10.5325 11.5013C10.3382 10.9665 10.1485 10.7505 9.64375 10.7505H7.675C7.11325 10.7505 7 11.0093 7 11.2988C7 11.8103 7.669 14.3535 10.111 17.7135C11.7385 20.007 14.0305 21.2498 16.1155 21.2498C17.3688 21.2498 17.5218 20.9738 17.5218 20.499C17.5218 18.3075 17.4085 18.1005 18.0363 18.1005C18.3273 18.1005 18.8282 18.2445 19.9982 19.3508C21.3355 20.6625 21.5553 21.2498 22.3038 21.2498H24.2717C24.8328 21.2498 25.117 20.9738 24.9535 20.4293C24.5793 19.284 22.0503 16.9283 21.9363 16.7708Z" fill="white"/>
</g>
</g>
<defs>
<clipPath id="clip0_103_6646">
<rect width="18" height="18" fill="white" transform="translate(7 7)"/>
</clipPath>
</defs>
</svg>
