<svg width="32" height="32" viewBox="0 0 32 32" fill="none" xmlns="http://www.w3.org/2000/svg">
<g id="icon hh 1">
<path id="bg icon 4 1" d="M16 32.0249C24.8366 32.0249 32 24.8615 32 16.0249C32 7.18835 24.8366 0.0249023 16 0.0249023C7.16344 0.0249023 0 7.18835 0 16.0249C0 24.8615 7.16344 32.0249 16 32.0249Z" fill="#8D93A1"/>
<path id="&#208;&#154;&#208;&#190;&#208;&#189;&#209;&#130;&#209;&#131;&#209;&#128; 837 1" d="M9.49688 13.9611C10.2195 13.1353 11.1485 12.7224 12.1807 12.7224C14.2452 12.7224 15.3808 13.9611 15.3808 16.3353V22.7353H13.213V16.4385C13.3162 15.9224 13.1098 15.4063 12.8001 14.9934C12.4904 14.6837 11.9743 14.5805 11.4581 14.5805C10.6323 14.5805 9.80656 14.9934 9.49688 15.7159V22.7353H7.3291V8.7998H9.49688V13.9611ZM19.8195 13.9611C20.542 13.1353 21.4711 12.7224 22.5033 12.7224C24.5678 12.7224 25.7033 13.9611 25.7033 16.3353V22.7353H23.5356V16.4385C23.6388 15.9224 23.4324 15.4063 23.1227 14.9934C22.813 14.6837 22.2968 14.5805 21.7807 14.5805C20.9549 14.5805 20.1291 14.9934 19.8195 15.7159V22.7353H17.6517V8.7998H19.8195V13.9611Z" fill="white"/>
</g>
</svg>
