<svg width="49" height="49" viewBox="0 0 49 49" fill="none" xmlns="http://www.w3.org/2000/svg">
<g id="Group 337726">
<path id="Vector" d="M22.3 0C21.1724 0 20.2583 0.914087 20.2583 2.04167V26.6997C20.2583 27.5301 21.1971 28.0131 21.8727 27.5302L28.5811 22.7354C28.9274 22.4878 29.3425 22.3547 29.7683 22.3547H46.9584C48.086 22.3547 49.0001 21.4406 49.0001 20.3131V2.04167C49.0001 0.914086 48.086 0 46.9584 0H22.3Z" fill="url(#paint0_linear_103_6666)"/>
<path id="Vector_2" d="M38.5649 36.1507C35.7292 36.1507 33.007 35.697 30.4663 34.8577C30.0674 34.7306 29.6415 34.7142 29.2341 34.81C28.8266 34.9059 28.4527 35.1105 28.1524 35.4021L23.1616 40.3929C16.7279 37.1198 11.4949 31.8948 8.21205 25.466L13.2028 20.4525C13.838 19.84 14.0195 18.9553 13.7699 18.1613C12.9094 15.5481 12.4728 12.814 12.4769 10.0627C12.4769 8.81502 11.456 7.79419 10.2084 7.79419H2.26852C1.02084 7.79419 0 8.81502 0 10.0627C0 31.3641 17.2635 48.6276 38.5649 48.6276C39.8126 48.6276 40.8334 47.6068 40.8334 46.3591V38.4193C40.8334 37.1716 39.8126 36.1507 38.5649 36.1507Z" fill="#025CFF"/>
<path id="Vector 691" d="M25.4565 7.79419H43.8014" stroke="white" stroke-width="2.04167" stroke-linecap="round"/>
<path id="Vector 692" d="M25.4565 14.342H43.8014" stroke="white" stroke-width="2.04167" stroke-linecap="round"/>
</g>
<defs>
<linearGradient id="paint0_linear_103_6666" x1="49.0001" y1="5.88927" x2="12.4653" y2="28.1552" gradientUnits="userSpaceOnUse">
<stop stop-color="#CBE6FF"/>
<stop offset="1" stop-color="#6FA2FF"/>
</linearGradient>
</defs>
</svg>
