<svg width="47" height="48" viewBox="0 0 47 48" fill="none" xmlns="http://www.w3.org/2000/svg">
<g id="Group 338016">
<circle id="Ellipse 673" cx="23.5" cy="24" r="23.5" fill="url(#paint0_radial_175_7317)"/>
<g id="Group 337786">
<path id="Polygon 8" d="M23.5 30.8887L26.7313 32.8274V36.7049L23.5 38.6437L20.2688 36.7049V32.8274L23.5 30.8887Z" fill="url(#paint1_linear_175_7317)"/>
<path id="Polygon 15" d="M23.5 8.91602L26.7313 10.8548V14.7323L23.5 16.671L20.2688 14.7323V10.8548L23.5 8.91602Z" fill="url(#paint2_linear_175_7317)"/>
<path id="Polygon 16" d="M13.8062 14.7324L17.0375 16.6712V20.5487L13.8062 22.4874L10.575 20.5487V16.6712L13.8062 14.7324Z" fill="url(#paint3_linear_175_7317)"/>
<path id="Polygon 18" d="M13.8062 25.0723L17.0375 27.011V30.8885L13.8062 32.8273L10.575 30.8885V27.011L13.8062 25.0723Z" fill="url(#paint4_linear_175_7317)"/>
<path id="Polygon 17" d="M33.1938 14.7324L36.425 16.6712V20.5487L33.1938 22.4874L29.9625 20.5487V16.6712L33.1938 14.7324Z" fill="url(#paint5_linear_175_7317)"/>
<path id="Polygon 19" d="M33.1938 25.0723L36.425 27.011V30.8885L33.1938 32.8273L29.9625 30.8885V27.011L33.1938 25.0723Z" fill="url(#paint6_linear_175_7317)"/>
<path id="Polygon 13" d="M23.5 12.7935L33.1938 18.2866V29.2728L23.5 34.766L13.8063 29.2728V18.2866L23.5 12.7935Z" fill="url(#paint7_linear_175_7317)"/>
<path id="Polygon 14" d="M23.4999 19.2563L27.3774 21.5182V26.042L23.4999 28.3038L19.6224 26.042V21.5182L23.4999 19.2563Z" fill="white"/>
</g>
</g>
<defs>
<radialGradient id="paint0_radial_175_7317" cx="0" cy="0" r="1" gradientUnits="userSpaceOnUse" gradientTransform="translate(8.55951e-08 22.7238) rotate(11.5325) scale(33.3234 28.8528)">
<stop stop-color="#6FA2FF"/>
<stop offset="1" stop-color="#CBE6FF"/>
</radialGradient>
<linearGradient id="paint1_linear_175_7317" x1="26.7668" y1="34.7658" x2="19.8072" y2="34.7658" gradientUnits="userSpaceOnUse">
<stop stop-color="#CBE6FF"/>
<stop offset="1" stop-color="#6FA2FF"/>
</linearGradient>
<linearGradient id="paint2_linear_175_7317" x1="26.3585" y1="12.7931" x2="20.2688" y2="12.7931" gradientUnits="userSpaceOnUse">
<stop stop-color="#CBE6FF"/>
<stop offset="1" stop-color="#6FA2FF"/>
</linearGradient>
<linearGradient id="paint3_linear_175_7317" x1="16.6646" y1="18.6095" x2="10.575" y2="18.6095" gradientUnits="userSpaceOnUse">
<stop stop-color="#CBE6FF"/>
<stop offset="1" stop-color="#6FA2FF"/>
</linearGradient>
<linearGradient id="paint4_linear_175_7317" x1="16.6646" y1="28.9494" x2="10.575" y2="28.9494" gradientUnits="userSpaceOnUse">
<stop stop-color="#CBE6FF"/>
<stop offset="1" stop-color="#6FA2FF"/>
</linearGradient>
<linearGradient id="paint5_linear_175_7317" x1="36.0522" y1="18.6095" x2="29.9625" y2="18.6095" gradientUnits="userSpaceOnUse">
<stop stop-color="#CBE6FF"/>
<stop offset="1" stop-color="#6FA2FF"/>
</linearGradient>
<linearGradient id="paint6_linear_175_7317" x1="36.0522" y1="28.9494" x2="29.9625" y2="28.9494" gradientUnits="userSpaceOnUse">
<stop stop-color="#CBE6FF"/>
<stop offset="1" stop-color="#6FA2FF"/>
</linearGradient>
<linearGradient id="paint7_linear_175_7317" x1="23.5" y1="12.7935" x2="23.5" y2="34.766" gradientUnits="userSpaceOnUse">
<stop stop-color="#025CFF"/>
<stop offset="1" stop-color="#025CFF"/>
</linearGradient>
</defs>
</svg>
