<svg width="23" height="24" viewBox="0 0 23 24" fill="none" xmlns="http://www.w3.org/2000/svg">
<g id="Group 337382">
<path id="Vector" d="M4 4.81885C1.79086 4.81885 0 6.60971 0 8.81885V21.8412C0 22.6619 0.934199 23.1332 1.5943 22.6454L4.02001 20.8529C4.70825 20.3443 5.54145 20.0699 6.39722 20.0699H15.5579C17.767 20.0699 19.5579 18.279 19.5579 16.0699V8.81885C19.5579 6.60971 17.767 4.81885 15.5579 4.81885H4Z" fill="#025CFF"/>
<path id="Vector_2" d="M7.44214 0C5.233 0 3.44214 1.79086 3.44214 4V17.0223C3.44214 17.8431 4.37634 18.3143 5.03644 17.8265L7.46215 16.0341C8.15039 15.5255 8.98359 15.251 9.83936 15.251H19C21.2091 15.251 23 13.4602 23 11.251V4C23 1.79086 21.2092 0 19 0H7.44214Z" fill="url(#paint0_radial_23_6600)"/>
<path id="?" d="M10.3943 3.87807L10.3262 2.41326C10.426 2.39392 10.6076 2.36008 10.8708 2.31174C11.1432 2.25372 11.3338 2.21988 11.4428 2.21022C11.5517 2.19088 11.7242 2.16671 11.9602 2.1377C12.1962 2.10869 12.4413 2.08936 12.6955 2.07969C12.9588 2.07002 13.2629 2.06519 13.6079 2.06519C14.5883 2.06519 15.319 2.24889 15.8002 2.6163C16.2813 2.98371 16.5219 3.54933 16.5219 4.31316C16.5219 4.69991 16.4402 5.06248 16.2768 5.40089C16.1224 5.72962 15.9318 6.01968 15.7049 6.27107C15.4779 6.52246 15.2464 6.77868 15.0104 7.03973C14.7744 7.30079 14.5656 7.61985 14.384 7.99693C14.2025 8.36434 14.0981 8.77043 14.0708 9.21519H12.4368C12.4186 8.63507 12.5049 8.09845 12.6955 7.60535C12.8862 7.11225 13.0995 6.7255 13.3355 6.44511C13.5806 6.16471 13.8121 5.86982 14.03 5.56042C14.2478 5.25102 14.3659 4.97546 14.384 4.73375C14.4112 4.41468 14.325 4.18263 14.1253 4.0376C13.9256 3.8829 13.5942 3.80555 13.1313 3.80555C12.3324 3.80555 11.4201 3.82972 10.3943 3.87807ZM13.0087 10.2014H13.4853C13.7486 10.2014 13.9301 10.2546 14.03 10.3609C14.1389 10.4673 14.1934 10.6607 14.1934 10.941V11.6372C14.1934 11.9176 14.1389 12.1158 14.03 12.2318C13.9301 12.3382 13.7486 12.3914 13.4853 12.3914H13.0087C12.7454 12.3914 12.5593 12.3382 12.4504 12.2318C12.3506 12.1158 12.3006 11.9176 12.3006 11.6372V10.941C12.3006 10.6607 12.3506 10.4673 12.4504 10.3609C12.5593 10.2546 12.7454 10.2014 13.0087 10.2014Z" fill="white"/>
</g>
<defs>
<radialGradient id="paint0_radial_23_6600" cx="0" cy="0" r="1" gradientUnits="userSpaceOnUse" gradientTransform="translate(5.50737 14.8008) rotate(-33.4248) scale(20.6208 21.221)">
<stop stop-color="#6FA2FF"/>
<stop offset="1" stop-color="#DBEEFF"/>
</radialGradient>
</defs>
</svg>
