<svg width="216" height="36" viewBox="0 0 216 36" fill="none" xmlns="http://www.w3.org/2000/svg">
<g id="roseltorg-logo 3" clip-path="url(#clip0_19_358)">
<path id="Vector" d="M56.0475 11.9475C54.8142 10.9447 53.26 10.4213 51.6713 10.4738H45.405V27.4163H49.3538V21.69H52.7288C53.0881 21.6916 53.4464 21.6539 53.7975 21.5775H54C55.2049 21.2033 56.2326 20.4036 56.8913 19.3275C57.5275 18.402 57.858 17.3004 57.8363 16.1775C57.8873 15.3819 57.7522 14.5854 57.4417 13.8511C57.1312 13.1169 56.6539 12.4651 56.0475 11.9475ZM53.7975 16.0875C53.8194 16.3555 53.779 16.625 53.6795 16.8748C53.5799 17.1246 53.424 17.348 53.2238 17.5275C52.6896 17.9054 52.0434 18.0917 51.39 18.0563H49.3425V14.0963H51.435C52.0877 14.0514 52.7346 14.2431 53.2575 14.6363C53.462 14.8159 53.6222 15.0403 53.7256 15.292C53.8291 15.5438 53.8729 15.816 53.8538 16.0875H53.7975ZM197.325 11.9475C196.087 10.9448 194.53 10.4217 192.938 10.4738H186.671V27.4163H190.62V21.69H193.995C194.373 21.6958 194.751 21.658 195.12 21.5775H195.334C196.534 21.2 197.557 20.4007 198.214 19.3275C198.85 18.402 199.18 17.3004 199.159 16.1775C199.203 15.3785 199.06 14.5802 198.741 13.846C198.423 13.1117 197.938 12.4617 197.325 11.9475ZM195.075 16.0875C195.097 16.3566 195.056 16.6271 194.954 16.8773C194.853 17.1274 194.694 17.3502 194.49 17.5275C193.961 17.907 193.318 18.0937 192.668 18.0563H190.575V14.0963H192.668C193.317 14.0501 193.961 14.2421 194.479 14.6363C194.685 14.8142 194.847 15.0383 194.951 15.2905C195.054 15.5427 195.097 15.8157 195.075 16.0875ZM77.895 12.375C76.2504 10.7624 74.039 9.85907 71.7357 9.85907C69.4323 9.85907 67.2209 10.7624 65.5763 12.375C63.9989 14.0782 63.1225 16.3142 63.1225 18.6356C63.1225 20.9571 63.9989 23.193 65.5763 24.8962C67.2359 26.5019 69.4546 27.3995 71.7638 27.3995C74.0729 27.3995 76.2917 26.5019 77.9513 24.8962C79.5238 23.1906 80.3969 20.9556 80.3969 18.6356C80.3969 16.3157 79.5238 14.0807 77.9513 12.375H77.895ZM75.0375 22.2863C74.6049 22.7196 74.0911 23.0634 73.5255 23.298C72.9599 23.5326 72.3536 23.6533 71.7413 23.6533C71.129 23.6533 70.5226 23.5326 69.957 23.298C69.3914 23.0634 68.8776 22.7196 68.445 22.2863C67.6107 21.2655 67.1549 19.9877 67.1549 18.6694C67.1549 17.351 67.6107 16.0732 68.445 15.0525C68.871 14.6165 69.379 14.269 69.9398 14.03C70.5006 13.7911 71.1031 13.6653 71.7127 13.6601C72.3223 13.6549 72.9268 13.7703 73.4917 13.9996C74.0565 14.2289 74.5704 14.5676 75.0038 14.9963V15.0525C75.8442 16.0705 76.3038 17.3493 76.3038 18.6694C76.3038 19.9894 75.8442 21.2683 75.0038 22.2863H75.0375ZM178.808 12.375C177.163 10.7658 174.954 9.86458 172.654 9.86458C170.353 9.86458 168.144 10.7658 166.5 12.375C164.923 14.0782 164.046 16.3142 164.046 18.6356C164.046 20.9571 164.923 23.193 166.5 24.8962C168.158 26.5045 170.378 27.4039 172.688 27.4039C174.998 27.4039 177.217 26.5045 178.875 24.8962C180.452 23.193 181.329 20.9571 181.329 18.6356C181.329 16.3142 180.452 14.0782 178.875 12.375H178.808ZM175.95 22.2413C175.518 22.6743 175.006 23.0178 174.441 23.2523C173.876 23.4867 173.271 23.6073 172.659 23.6073C172.048 23.6073 171.443 23.4867 170.878 23.2523C170.313 23.0178 169.8 22.6743 169.369 22.2413C168.534 21.2205 168.079 19.9427 168.079 18.6244C168.079 17.306 168.534 16.0282 169.369 15.0075C169.795 14.5715 170.303 14.224 170.864 13.985C171.424 13.7461 172.027 13.6203 172.636 13.6151C173.246 13.6099 173.851 13.7253 174.415 13.9546C174.98 14.1839 175.494 14.5226 175.928 14.9513L175.984 15.0075C176.834 16.0207 177.301 17.3014 177.301 18.6244C177.301 19.9474 176.834 21.228 175.984 22.2413H175.95ZM214.785 10.4738H204.379V27.4163H208.35V14.13H213.581L213.773 13.8375L215.336 11.4863L216 10.4738H214.785ZM159.874 10.4738H145.958V14.13H151.256V27.4163H155.25V14.13H160.549V10.4738H159.874ZM97.875 22.995L97.5038 22.815L97.1775 23.0738C96.3987 23.6592 95.4395 23.9537 94.4663 23.9063C93.8012 23.9367 93.1372 23.8273 92.5171 23.5851C91.897 23.3428 91.3346 22.9732 90.8663 22.5C90.3972 22.0019 90.033 21.4146 89.7953 20.773C89.5576 20.1313 89.4512 19.4485 89.4825 18.765C89.4507 18.0916 89.557 17.4188 89.795 16.7881C90.0329 16.1573 90.3975 15.582 90.8663 15.0975C91.3317 14.6307 91.889 14.2656 92.5029 14.0255C93.1168 13.7853 93.7739 13.6753 94.4325 13.7025C95.0157 13.7101 95.5906 13.8404 96.12 14.085C96.7002 14.3483 97.2179 14.7317 97.6388 15.21L98.0325 15.6825L98.5163 15.3113L100.328 13.95L100.879 13.5338L100.44 13.0163C99.7194 12.1065 98.8006 11.3731 97.7537 10.8721C96.7068 10.3711 95.5594 10.1155 94.3988 10.125C93.2229 10.1166 92.0556 10.3264 90.9563 10.7438C89.9002 11.1411 88.9385 11.7541 88.1325 12.5438C87.3072 13.3297 86.6624 14.2855 86.2425 15.345C85.811 16.4175 85.5932 17.564 85.6013 18.72C85.5975 19.8735 85.8073 21.0178 86.22 22.095C86.6288 23.142 87.2405 24.0978 88.02 24.9075C88.817 25.7057 89.7761 26.3234 90.8325 26.7188C91.9723 27.1285 93.1764 27.3305 94.3875 27.315C95.3775 27.362 96.3669 27.2132 97.2993 26.8773C98.2317 26.5415 99.0887 26.025 99.8213 25.3575C99.9608 25.2269 100.092 25.0879 100.215 24.9413L100.766 24.3L100.001 23.9288L97.875 22.995ZM120.758 15.3563C120.326 14.3082 119.685 13.36 118.872 12.5704C118.059 11.7808 117.093 11.1667 116.033 10.7663C114.954 10.3599 113.81 10.1503 112.658 10.1475C111.496 10.1385 110.348 10.3954 109.3 10.8985C108.253 11.4016 107.335 12.1375 106.616 13.05L106.178 13.5788L106.729 13.9838L108.529 15.345L109.024 15.7163L109.418 15.255C109.835 14.778 110.349 14.3946 110.925 14.13C111.454 13.8849 112.03 13.7582 112.613 13.7588C113.273 13.7258 113.932 13.8319 114.548 14.0703C115.165 14.3087 115.724 14.674 116.19 15.1425L116.55 15.5475C116.57 15.6012 116.605 15.648 116.651 15.6825C117.07 16.2724 117.351 16.9492 117.473 17.6625H110.869L111.555 18.675L112.759 20.4638L112.95 20.745H117.225C116.997 21.425 116.611 22.0417 116.1 22.545C115.633 23.0199 115.071 23.3907 114.45 23.633C113.83 23.8754 113.165 23.9838 112.5 23.9513C111.53 24.0019 110.573 23.7069 109.8 23.1188L109.474 22.86L109.103 23.04L106.954 24.0863L106.189 24.4575L106.74 25.0988C106.875 25.2563 107.01 25.38 107.134 25.515C107.866 26.1825 108.723 26.699 109.656 27.0348C110.588 27.3707 111.578 27.5195 112.568 27.4725C113.779 27.4897 114.983 27.2877 116.123 26.8763C117.177 26.4839 118.133 25.8657 118.924 25.065C119.71 24.2587 120.326 23.3022 120.735 22.2525C121.148 21.1753 121.358 20.031 121.354 18.8775C121.387 17.676 121.185 16.4796 120.758 15.3563ZM142.088 26.5275L135.653 10.9013L135.495 10.4963H131.816L131.659 10.9013L125.269 26.5275L124.898 27.4275H129.398L129.555 27.0113L133.706 16.74L137.824 27L137.993 27.4163H142.493L142.088 26.5275Z" fill="black"/>
<path id="Vector_2" d="M16.2113 19.7888H0C0.110179 20.9641 0.340123 22.1251 0.68625 23.2538H10.2937L4.03875 29.5088C4.76985 30.4083 5.59169 31.2302 6.49125 31.9613L12.7463 25.7063V35.3138C13.8749 35.6599 15.0359 35.8898 16.2113 36V19.7888ZM35.8988 19.7888H19.6875V36C20.8629 35.8898 22.0239 35.6599 23.1525 35.3138V23.2538H31.5C30.8183 25.0146 29.8021 26.6268 28.5075 28.0013V32.625C31.6861 30.3121 34.0242 27.0261 35.1675 23.265V23.1975C35.235 22.9838 35.2912 22.7588 35.3475 22.5338C35.3514 22.4738 35.3514 22.4137 35.3475 22.3538C35.415 22.1063 35.46 21.87 35.5163 21.6338V21.4313C35.5163 21.2288 35.595 21.0263 35.6287 20.8125C35.6239 20.7526 35.6239 20.6924 35.6287 20.6325C35.6287 20.4413 35.685 20.25 35.7075 20.0588C35.763 19.9632 35.827 19.8729 35.8988 19.7888ZM18 1.42666e-05C13.4886 -0.0175347 9.13515 1.65963 5.80161 4.6994C2.46807 7.73918 0.397533 11.9199 0 16.4138H12.2625L14.1975 12.96H4.30875C4.61054 12.1289 4.98708 11.3269 5.43375 10.5638H15.5588L17.4937 7.09876H8.33625C10.9902 4.75532 14.4088 3.46203 17.9494 3.46203C21.4899 3.46203 24.9085 4.75532 27.5625 7.09876H18.4275L20.3625 10.5638H30.4875C30.9338 11.327 31.3104 12.129 31.6125 12.96H21.7125L23.625 16.4138H35.8875C35.4917 11.9393 33.4371 7.77446 30.1274 4.73742C26.8176 1.70039 22.492 0.0106139 18 1.42666e-05Z" fill="#0450F2"/>
</g>
<defs>
<clipPath id="clip0_19_358">
<rect width="216" height="36" fill="white"/>
</clipPath>
</defs>
</svg>
