<svg width="59" height="57" viewBox="0 0 59 57" fill="none" xmlns="http://www.w3.org/2000/svg">
<g id="Union">
<mask id="path-1-outside-1_23_6552" maskUnits="userSpaceOnUse" x="0" y="0" width="59" height="57" fill="black">
<rect fill="white" width="59" height="57"/>
<path fill-rule="evenodd" clip-rule="evenodd" d="M23.5681 46.1362C28.3821 46.1362 32.844 44.6289 36.5077 42.0606C36.5732 42.1337 36.6411 42.2055 36.7114 42.2758L48.5576 54.122C50.622 56.1864 53.969 56.1864 56.0334 54.122C58.0978 52.0576 58.0978 48.7105 56.0334 46.6461L44.1873 34.7999C43.9646 34.5773 43.727 34.3787 43.4778 34.204C45.1742 31.0351 46.1362 27.4139 46.1362 23.5681C46.1362 11.1041 36.0321 1 23.5681 1C11.1041 1 1 11.1041 1 23.5681C1 36.0321 11.1041 46.1362 23.5681 46.1362Z"/>
</mask>
<path fill-rule="evenodd" clip-rule="evenodd" d="M23.5681 46.1362C28.3821 46.1362 32.844 44.6289 36.5077 42.0606C36.5732 42.1337 36.6411 42.2055 36.7114 42.2758L48.5576 54.122C50.622 56.1864 53.969 56.1864 56.0334 54.122C58.0978 52.0576 58.0978 48.7105 56.0334 46.6461L44.1873 34.7999C43.9646 34.5773 43.727 34.3787 43.4778 34.204C45.1742 31.0351 46.1362 27.4139 46.1362 23.5681C46.1362 11.1041 36.0321 1 23.5681 1C11.1041 1 1 11.1041 1 23.5681C1 36.0321 11.1041 46.1362 23.5681 46.1362Z" fill="url(#paint0_radial_23_6552)"/>
<path d="M36.5077 42.0606L37.2528 41.3935L36.6606 40.7322L35.9337 41.2417L36.5077 42.0606ZM56.0334 54.122L55.3263 53.4149L56.0334 54.122ZM43.4778 34.204L42.5962 33.7321L42.1775 34.5141L42.904 35.0231L43.4778 34.204ZM35.9337 41.2417C32.4327 43.696 28.1701 45.1362 23.5681 45.1362V47.1362C28.5941 47.1362 33.2553 45.5618 37.0818 42.8794L35.9337 41.2417ZM37.4185 41.5687C37.3612 41.5114 37.306 41.453 37.2528 41.3935L35.7627 42.7276C35.8405 42.8145 35.921 42.8996 36.0043 42.9829L37.4185 41.5687ZM49.2647 53.4149L37.4185 41.5687L36.0043 42.9829L47.8505 54.8291L49.2647 53.4149ZM55.3263 53.4149C53.6525 55.0887 50.9386 55.0887 49.2647 53.4149L47.8505 54.8291C50.3054 57.284 54.2856 57.284 56.7405 54.8291L55.3263 53.4149ZM55.3263 47.3532C57.0002 49.0271 57.0002 51.741 55.3263 53.4149L56.7405 54.8291C59.1955 52.3741 59.1955 48.3939 56.7405 45.939L55.3263 47.3532ZM43.4802 35.5071L55.3263 47.3532L56.7405 45.939L44.8944 34.0928L43.4802 35.5071ZM42.904 35.0231C43.1059 35.1645 43.2988 35.3257 43.4802 35.5071L44.8944 34.0928C44.6304 33.8289 44.3482 33.5928 44.0515 33.385L42.904 35.0231ZM45.1362 23.5681C45.1362 27.2453 44.2168 30.7047 42.5962 33.7321L44.3594 34.676C46.1316 31.3654 47.1362 27.5826 47.1362 23.5681H45.1362ZM23.5681 2C35.4798 2 45.1362 11.6564 45.1362 23.5681H47.1362C47.1362 10.5518 36.5844 0 23.5681 0V2ZM2 23.5681C2 11.6564 11.6564 2 23.5681 2V0C10.5518 0 0 10.5518 0 23.5681H2ZM23.5681 45.1362C11.6564 45.1362 2 35.4798 2 23.5681H0C0 36.5844 10.5518 47.1362 23.5681 47.1362V45.1362Z" fill="#0041CB" mask="url(#path-1-outside-1_23_6552)"/>
</g>
<defs>
<radialGradient id="paint0_radial_23_6552" cx="0" cy="0" r="1" gradientUnits="userSpaceOnUse" gradientTransform="translate(7.55575 10.8078) rotate(42.6829) scale(37.0866 39.5256)">
<stop stop-color="#6FA2FF"/>
<stop offset="1" stop-color="#CBE6FF"/>
</radialGradient>
</defs>
</svg>
