<svg width="50" height="44" viewBox="0 0 50 44" fill="none" xmlns="http://www.w3.org/2000/svg">
<g id="Group 336924">
<path id="Union" fill-rule="evenodd" clip-rule="evenodd" d="M17.3837 34.4243C26.9844 34.4243 34.7674 26.7181 34.7674 17.2121C34.7674 7.70614 26.9844 0 17.3837 0C7.78294 0 0 7.70614 0 17.2121C0 20.5372 0.952235 23.642 2.60142 26.2739C2.42299 26.8761 2.1623 27.6783 1.87397 28.5656C1.04986 31.1017 0 34.3324 0 35.5717L9.69082 32.6514C12.01 33.7865 14.6216 34.4243 17.3837 34.4243Z" fill="#1F66FF"/>
<path id="Union_2" fill-rule="evenodd" clip-rule="evenodd" d="M46.8837 34.009C48.0301 31.7127 48.6743 29.1268 48.6743 26.3918C48.6743 16.8858 40.8914 9.17969 31.2907 9.17969C21.6899 9.17969 13.907 16.8858 13.907 26.3918C13.907 35.8978 21.6899 43.604 31.2907 43.604C34.6488 43.604 37.7846 42.6612 40.4426 41.0283C41.0508 41.2049 41.861 41.4631 42.7571 41.7485C45.3184 42.5645 48.5814 43.604 49.833 43.604L46.8837 34.009Z" fill="url(#paint0_linear_103_6674)"/>
<path id="Intersect" fill-rule="evenodd" clip-rule="evenodd" d="M34.7674 17.2121C34.7674 26.7181 26.9844 34.4243 17.3837 34.4243C16.8764 34.4243 16.3742 34.4028 15.878 34.3606C14.6189 31.978 13.9067 29.2673 13.9067 26.3918C13.9067 16.8858 21.6897 9.17969 31.2904 9.17969C31.7977 9.17969 32.2999 9.2012 32.7961 9.24335C34.0552 11.626 34.7674 14.3367 34.7674 17.2121Z" fill="#0041CB"/>
</g>
<defs>
<linearGradient id="paint0_linear_103_6674" x1="47.7606" y1="26.3902" x2="13.907" y2="26.3902" gradientUnits="userSpaceOnUse">
<stop stop-color="#CBE6FF"/>
<stop offset="1" stop-color="#6FA2FF"/>
</linearGradient>
</defs>
</svg>
