<svg width="23" height="25" viewBox="0 0 23 25" fill="none" xmlns="http://www.w3.org/2000/svg">
<g id="Group 338012">
<g id="Group 337133">
<path id="Union" fill-rule="evenodd" clip-rule="evenodd" d="M6.68602 0C4.76588 0 3.20929 1.55658 3.20929 3.47673C3.20929 5.39687 4.76587 6.95346 6.68602 6.95346C8.60616 6.95346 10.1628 5.39687 10.1628 3.47673C10.1628 1.55658 8.60617 0 6.68602 0ZM2.13953 17.1162H1.06976C0.478949 17.1162 0 16.6373 0 16.0465V12.3023C0 9.94454 1.90691 8.03216 4.2626 8.02329L4.27905 8.02322H8.5581C10.9214 8.02322 12.8372 9.93902 12.8372 12.3023V16.0464C12.8372 16.6373 12.3582 17.1162 11.7674 17.1162H10.6976V18.7209C10.6976 19.9025 9.73973 20.8604 8.55811 20.8604H4.27905C3.09742 20.8604 2.13953 19.9025 2.13953 18.7209V17.1162Z" fill="#1F66FF"/>
<path id="Union_2" fill-rule="evenodd" clip-rule="evenodd" d="M16.8489 3.74414C14.9287 3.74414 13.3721 5.30073 13.3721 7.22087C13.3721 9.14102 14.9287 10.6976 16.8489 10.6976C18.769 10.6976 20.3256 9.14102 20.3256 7.22087C20.3256 5.30073 18.769 3.74414 16.8489 3.74414ZM14.4419 11.7674C12.0786 11.7674 10.1628 13.6832 10.1628 16.0464V19.7906C10.1628 20.3814 10.6418 20.8604 11.2326 20.8604H12.3023V22.465C12.3023 23.6466 13.2602 24.6045 14.4418 24.6045H18.7209C19.9025 24.6045 20.8604 23.6466 20.8604 22.465V20.8604H21.9301C22.521 20.8604 22.9999 20.3814 22.9999 19.7906V16.0464C22.9999 13.6832 21.0841 11.7674 18.7209 11.7674H14.4419Z" fill="#A2C8FF"/>
<path id="Intersect" fill-rule="evenodd" clip-rule="evenodd" d="M12.8314 12.0808C12.8351 12.1542 12.837 12.228 12.837 12.3023V16.0465C12.837 16.6373 12.3581 17.1162 11.7672 17.1162H10.6975V18.7209C10.6975 19.2405 10.5123 19.7168 10.2043 20.0874C10.1771 19.9932 10.1626 19.8937 10.1626 19.7907V16.0465C10.1626 14.2529 11.2662 12.717 12.8314 12.0808Z" fill="#0041CB"/>
</g>
</g>
</svg>
