<svg width="23" height="21" viewBox="0 0 23 21" fill="none" xmlns="http://www.w3.org/2000/svg">
<path d="M0 12.1192C0 9.13053 2.42277 6.70776 5.41141 6.70776C8.40005 6.70776 10.8228 9.13054 10.8228 12.1192V13.1402C10.8228 13.8507 10.2468 14.4267 9.53633 14.4267H1.28649C0.575984 14.4267 0 13.8507 0 13.1402V12.1192Z" fill="#025CFF"/>
<ellipse cx="5.41129" cy="2.89615" rx="2.89615" ry="2.89615" fill="#025CFF"/>
<path d="M7.72144 17.5319C7.72144 13.3128 11.1416 9.89264 15.3607 9.89264C19.5797 9.89264 22.9999 13.3128 22.9999 17.5319V18.2748C22.9999 19.6636 21.874 20.7894 20.4853 20.7894H10.2361C8.84728 20.7894 7.72144 19.6636 7.72144 18.2748V17.5319Z" fill="url(#paint0_radial_23_6546)"/>
<ellipse cx="15.3607" cy="4.51198" rx="4.08846" ry="4.08846" fill="url(#paint1_radial_23_6546)"/>
<defs>
<radialGradient id="paint0_radial_23_6546" cx="0" cy="0" r="1" gradientUnits="userSpaceOnUse" gradientTransform="translate(8.54556 10.7037) rotate(36.5342) scale(10.3395 10.2855)">
<stop stop-color="#6FA2FF"/>
<stop offset="1" stop-color="#CBE6FF"/>
</radialGradient>
<radialGradient id="paint1_radial_23_6546" cx="0" cy="0" r="1" gradientUnits="userSpaceOnUse" gradientTransform="translate(1.78778 3.28658) scale(16.8123 17.9572)">
<stop stop-color="#6FA2FF"/>
<stop offset="1" stop-color="#CBE6FF"/>
</radialGradient>
</defs>
</svg>
