<svg width="40" height="40" viewBox="0 0 40 40" fill="none" xmlns="http://www.w3.org/2000/svg">
<g id="Group 338016">
<circle id="Ellipse 673" cx="20" cy="20" r="20" fill="url(#paint0_radial_120_7088)"/>
<path id="Rectangle 2562" d="M7 23.677C7 19.811 10.134 16.6769 14 16.6769C17.866 16.6769 21 19.811 21 23.677V24.0208C21 25.4794 19.8176 26.6619 18.3589 26.6619H9.64112C8.18247 26.6619 7 25.4794 7 24.0208V23.677Z" fill="white"/>
<path id="Rectangle 2518" d="M28.7859 27.294C28.7859 29.1889 27.2498 30.7249 25.355 30.7249L14.5783 30.7249C12.6835 30.7249 11.1474 29.1889 11.1474 27.294L11.1474 26.9642C11.1474 22.0935 15.0959 18.145 19.9667 18.145C24.8374 18.145 28.7859 22.0935 28.7859 26.9642L28.7859 27.294Z" fill="#025CFF"/>
<circle id="Ellipse 573" cx="13.9997" cy="11.7464" r="3.74636" fill="white"/>
<circle id="Ellipse 550" cx="19.9672" cy="11.9331" r="4.71999" fill="#025CFF"/>
</g>
<defs>
<radialGradient id="paint0_radial_120_7088" cx="0" cy="0" r="1" gradientUnits="userSpaceOnUse" gradientTransform="translate(7.28469e-08 18.9139) rotate(11.5325) scale(28.3603 24.5555)">
<stop stop-color="#6FA2FF"/>
<stop offset="1" stop-color="#CBE6FF"/>
</radialGradient>
</defs>
</svg>
