<svg width="32" height="32" viewBox="0 0 32 32" fill="none" xmlns="http://www.w3.org/2000/svg">
<g clip-path="url(#clip0_103_6650)">
<path d="M16 32.0249C24.8366 32.0249 32 24.8615 32 16.0249C32 7.18835 24.8366 0.0249023 16 0.0249023C7.16344 0.0249023 0 7.18835 0 16.0249C0 24.8615 7.16344 32.0249 16 32.0249Z" fill="#8D93A1"/>
</g>
<path d="M21.8463 9H10.1537C7.85969 9 6 10.8597 6 13.1537V18.9988C6 21.2928 7.85969 23.1525 10.1537 23.1525H21.8463C24.1403 23.1525 26 21.2928 26 18.9988V13.1537C26 10.8597 24.1403 9 21.8463 9ZM19.0371 16.3606L13.5681 18.969C13.4224 19.0385 13.2541 18.9323 13.2541 18.7708V13.3911C13.2541 13.2273 13.4268 13.1212 13.5729 13.1952L19.0418 15.9666C19.2044 16.049 19.2016 16.2822 19.0371 16.3606Z" fill="white"/>
<defs>
<clipPath id="clip0_103_6650">
<rect width="32" height="32" fill="white"/>
</clipPath>
</defs>
</svg>
